<svg width="233" height="208" viewBox="0 0 233 208" fill="none" xmlns="http://www.w3.org/2000/svg">
<path d="M169.5 4C170.328 4 171 3.10457 171 2C171 0.89543 170.328 0 169.5 0C168.672 0 168 0.89543 168 2C168 3.10457 168.672 4 169.5 4Z" fill="#CFCFCF"/>
<path d="M183 139C184.105 139 185 138.105 185 137C185 135.895 184.105 135 183 135C181.895 135 181 135.895 181 137C181 138.105 181.895 139 183 139Z" fill="#CFCFCF"/>
<path d="M156.976 70.9654C140.417 70.9654 123.596 70.2896 107.862 65.9078C92.1279 61.526 78.3063 53.2639 65.5714 43.6065C57.2914 37.3064 49.7287 32.3142 39.0148 33.0772C28.5068 33.6382 18.4572 37.5743 10.3502 44.3041C-3.40614 56.3159 -1.23294 78.5299 4.20007 94.1386C12.4148 117.682 37.4284 134.011 58.6823 144.671C83.2395 156.966 110.209 164.116 137.265 168.236C161.171 171.855 191.443 174.471 211.98 158.928C230.865 144.671 236.038 112.08 231.409 90.0838C230.288 83.5828 226.842 77.7151 221.716 73.5813C208.46 63.8586 188.683 70.355 173.775 70.682C168.277 70.8128 162.627 70.9436 156.976 70.9654Z" fill="#FFECD0"/>
<path d="M223 40V48" stroke="#BABABA" stroke-linecap="round" stroke-linejoin="round"/>
<path d="M220 44H227" stroke="#BABABA" stroke-linecap="round" stroke-linejoin="round"/>
<path d="M116.5 208C156.541 208 189 205.761 189 203C189 200.239 156.541 198 116.5 198C76.4594 198 44 200.239 44 203C44 205.761 76.4594 208 116.5 208Z" fill="#F2F2F2"/>
<path d="M197.636 42.1913L46.323 28.7934C41.9373 28.4051 38.0673 31.6455 37.679 36.0312L28.2583 142.426C27.87 146.812 31.1105 150.682 35.4961 151.07L186.809 164.468C191.195 164.856 195.065 161.616 195.453 157.23L204.874 50.8353C205.262 46.4496 202.022 42.5796 197.636 42.1913Z" fill="white" stroke="#BABABA" stroke-linecap="round" stroke-linejoin="round"/>
<path d="M161.07 81.0915L75.5093 73.5156C73.5093 73.3385 71.7444 74.8163 71.5673 76.8163L71.0399 82.772C70.8629 84.772 72.3407 86.537 74.3407 86.714L159.902 94.2899C161.902 94.467 163.667 92.9893 163.844 90.9892L164.371 85.0335C164.548 83.0335 163.07 81.2686 161.07 81.0915Z" fill="white" stroke="#BABABA" stroke-linecap="round" stroke-linejoin="round"/>
<path d="M158.788 106.809L73.2269 99.2329C71.2268 99.0558 69.4619 100.534 69.2848 102.534L68.7575 108.489C68.5804 110.489 70.0582 112.254 72.0582 112.431L157.619 120.007C159.619 120.184 161.384 118.707 161.561 116.706L162.088 110.751C162.266 108.751 160.788 106.986 158.788 106.809Z" fill="white" stroke="#BABABA" stroke-linecap="round" stroke-linejoin="round"/>
<path d="M128.237 130.481L99.1571 127.906C97.6269 127.77 96.2766 128.901 96.1412 130.431L95.4631 138.088C95.3277 139.619 96.4583 140.969 97.9884 141.104L127.069 143.679C128.599 143.815 129.949 142.684 130.085 141.154L130.763 133.497C130.898 131.966 129.767 130.616 128.237 130.481Z" fill="#9CF0FF"/>
<path d="M143 35.0002C143 39.9447 141.475 44.7781 138.618 48.8893C135.761 53.0005 131.7 56.2048 126.95 58.097C122.199 59.9892 116.971 60.4842 111.928 59.5196C106.884 58.555 102.251 56.174 98.6152 52.6777C94.979 49.1814 92.5028 44.7269 91.4996 39.8774C90.4964 35.0279 91.0113 30.0013 92.9791 25.4331C94.947 20.865 98.2795 16.9606 102.555 14.2136C106.831 11.4665 111.858 10.0003 117 10.0003C120.419 9.98317 123.808 10.6181 126.971 11.8684C130.133 13.1186 133.006 14.9595 135.424 17.2843C137.842 19.6092 139.757 22.372 141.057 25.4129C142.357 28.4537 143.018 31.7123 143 35.0002Z" fill="white" stroke="#BABABA" stroke-linecap="round" stroke-linejoin="round"/>
<path d="M137 51.0929C134.59 53.8863 131.599 56.1288 128.233 57.6664C124.867 59.2039 121.205 60 117.5 60C113.795 60 110.133 59.2039 106.767 57.6664C103.401 56.1288 100.41 53.8863 98 51.0929C98.3339 46.1851 100.534 41.5865 104.154 38.2275C107.774 34.8685 112.544 33 117.5 33C122.456 33 127.226 34.8685 130.846 38.2275C134.466 41.5865 136.666 46.1851 137 51.0929Z" fill="#9CF0FF"/>
<path d="M116.5 29C121.194 29 125 25.4183 125 21C125 16.5817 121.194 13 116.5 13C111.806 13 108 16.5817 108 21C108 25.4183 111.806 29 116.5 29Z" fill="#9CF0FF"/>
<path d="M94.5 85C96.433 85 98 83.6569 98 82C98 80.3431 96.433 79 94.5 79C92.567 79 91 80.3431 91 82C91 83.6569 92.567 85 94.5 85Z" fill="#D2D2D2"/>
<path d="M110 87C112.209 87 114 85.2092 114 83C114 80.7909 112.209 79 110 79C107.791 79 106 80.7909 106 83C106 85.2092 107.791 87 110 87Z" fill="#D2D2D2"/>
<path d="M125 89C127.209 89 129 87.2091 129 85C129 82.7909 127.209 81 125 81C122.791 81 121 82.7909 121 85C121 87.2091 122.791 89 125 89Z" fill="#D2D2D2"/>
<path d="M140.5 91C142.433 91 144 89.2091 144 87C144 84.7909 142.433 83 140.5 83C138.567 83 137 84.7909 137 87C137 89.2091 138.567 91 140.5 91Z" fill="#D2D2D2"/>
</svg>
