<svg width="1448" height="902" viewBox="0 0 1448 902" fill="none" xmlns="http://www.w3.org/2000/svg">
<path d="M499.703 632.215H447.598V732.455H321.267V632.215H133V529.279L329.624 214.006H447.598V527.663H499.703V632.215ZM321.759 527.663V467.303C321.759 455.985 322.25 440.895 322.742 421.494C323.725 402.092 324.217 392.392 324.708 391.314H321.267C313.894 409.637 305.537 426.344 296.198 442.512L243.601 527.663H321.759Z" fill="#FFB61D" fill-opacity="0.4"/>
<path d="M874.762 474.308C874.762 565.926 860.507 633.292 832.98 675.868C804.961 718.443 762.195 740 704.191 740C647.662 740 605.388 717.904 576.386 673.173C547.875 628.442 533.62 562.154 533.62 474.308C533.62 382.152 547.384 314.786 575.894 271.671C603.913 228.557 646.679 207 704.683 207C760.72 207 803.486 229.635 831.997 274.366C860.016 319.097 874.762 385.385 874.762 474.308ZM660.442 474.308C660.442 533.052 663.883 573.471 670.274 595.028C677.155 617.124 687.97 627.903 703.7 627.903C719.43 627.903 730.735 616.585 737.617 593.95C744.008 571.315 747.448 531.435 747.448 474.308C747.448 416.643 744.008 376.762 737.617 353.588C730.735 330.415 719.921 319.097 704.191 319.097C688.461 319.097 677.155 330.415 670.765 352.511C663.392 374.607 660.442 415.026 660.442 474.308Z" fill="#FFB61D" fill-opacity="0.4"/>
<path d="M1275.87 632.215H1223.77V732.455H1097.44V632.215H909.172V529.279L1105.8 214.006H1223.77V527.663H1275.87V632.215ZM1097.93 527.663V467.303C1097.93 455.985 1098.42 440.895 1098.91 421.494C1099.9 402.092 1100.39 392.392 1100.88 391.314H1097.44C1090.07 409.637 1081.71 426.344 1072.37 442.512L1019.77 527.663H1097.93Z" fill="#FFB61D" fill-opacity="0.4"/>
<path d="M741.074 612.471C741.074 612.471 757.751 604.626 763.977 599.169C770.203 593.711 777.943 580.151 777.943 580.151C777.943 580.151 862.966 641.555 918.404 632.796C931.178 630.778 956.066 622.287 957.654 607.328C961.988 566.479 902.023 556.04 915.122 535.325C923.117 522.681 947.954 541.5 947.954 541.5L1050.97 592.172C1050.97 592.172 1015.38 679.901 929.014 683.417C822.77 687.742 741.074 612.471 741.074 612.471Z" fill="white"/>
<path fill-rule="evenodd" clip-rule="evenodd" d="M659.397 268.901C658.43 268.522 653.238 262.164 646.645 261.006C643.65 260.48 646.369 264.295 643.072 264.329C633.253 264.431 617.296 262.587 614.34 264.329C612.143 265.62 616.981 270.13 614.34 270.337C589.418 272.29 551.399 297.174 543.15 309.246C540.525 313.088 561.756 306.57 558.373 308.469C554.577 310.601 550.366 324.559 547.848 335.34C546.105 342.764 545.008 352.318 544.62 362.711C544.298 371.684 544.427 373.169 545.718 378.075C547.202 383.563 548.364 385.176 550.366 384.402C551.076 384.144 551.399 383.175 551.399 381.368C551.399 379.947 552.173 375.687 553.142 371.878L554.82 365.035L555.53 367.876C556.434 371.168 561.727 381.368 566.504 388.791C566.762 389.185 567.871 388.684 568.87 386.268C569.781 384.067 569.411 380.549 570.959 376.78C574.484 368.193 581.404 357.028 589.418 348.092C601.262 334.884 605.191 319.599 616.294 307.329C637.013 284.431 663.017 270.322 659.397 268.901Z" fill="white"/>
<path fill-rule="evenodd" clip-rule="evenodd" d="M558.668 311.584C555.344 314.257 550.411 335.935 550.326 336.297C548.583 343.721 546.903 369.502 548.62 374.382C550.338 379.263 555.147 361.669 555.147 361.669C555.147 361.669 562.415 380.543 568.838 385.718C569.112 385.939 561.204 362.366 558.668 348.605C555.32 330.44 560.559 310.063 558.668 311.584Z" fill="#E7EAEE"/>
<path fill-rule="evenodd" clip-rule="evenodd" d="M682.548 691.247C688.746 689.892 699.202 685.171 703.206 683.556C707.21 681.942 719.409 664.715 723.799 645.284C726.962 630.953 728.576 610.553 726.769 607.132C726.502 606.646 725.525 597.37 728.125 600.399C733.903 607.132 740.761 617.702 762.402 598.762C768.297 593.603 776.109 586.945 774.052 581.059C768.297 564.591 743.348 531.431 739.544 528.919C734.997 525.916 712.011 528.468 677.804 518.372C639.011 506.922 622.857 473.205 607.676 477.594C595.399 481.144 565.984 502.956 558.602 516.769C523.751 581.98 565.984 627.674 575.602 640.799L584.941 644.832L585.264 653.16L585.716 658.389C586.555 668.395 586.878 669.299 591.397 672.655C602.694 681.241 624.965 689.246 645.106 692.087C654.467 693.378 674.802 692.926 682.548 691.247Z" fill="white"/>
<path fill-rule="evenodd" clip-rule="evenodd" d="M588.614 650.112L589.066 655.341C589.905 665.347 590.228 666.25 594.746 669.607C601.411 674.672 611.895 679.535 623.507 683.255C631.58 685.84 640.197 687.874 648.456 689.038C657.817 690.329 678.152 689.878 685.898 688.199C689.727 687.37 658.231 662.625 639.677 669.607C625.428 674.969 591.843 634.07 605.498 623.385C620.816 611.398 592.747 564.122 591.843 553.858C590.939 543.594 587.38 541.142 587.276 541.502C587.172 541.862 587.172 543.09 587.452 546.049C588.656 558.803 588.614 650.112 588.614 650.112Z" fill="#E7EAEE"/>
<path fill-rule="evenodd" clip-rule="evenodd" d="M576.199 550.928C577.554 550.664 578.866 551.549 579.13 552.904C584.002 577.935 604.611 594.881 641.462 603.742C678.533 612.656 703.784 612.175 717.088 602.661C718.211 601.857 717.374 608.736 716.551 609.263C707.874 614.828 678.371 623.131 643.163 615.626C598.146 606.031 577.009 568.178 574.222 553.859C573.959 552.504 574.843 551.192 576.199 550.928Z" fill="#FFB61D"/>
<path fill-rule="evenodd" clip-rule="evenodd" d="M557.426 505.767C558.625 505.081 603.336 556.324 664.696 567.923C726.056 579.523 740.912 572.146 743.3 556.324C743.506 554.959 744.78 554.019 746.145 554.225C747.511 554.431 748.45 555.705 748.244 557.07C745.218 577.122 716.825 581.891 663.855 572.852C611.55 563.927 575.69 542.721 556.498 509.178C555.812 507.98 556.228 506.452 557.426 505.767Z" fill="#FFB61D"/>
<path fill-rule="evenodd" clip-rule="evenodd" d="M814.963 502.925C813.284 502.344 811.477 501.053 810.315 499.568L808.378 497.179L815.221 490.401C825.744 480.072 833.813 469.485 840.785 456.897C843.109 452.701 848.983 438.693 848.983 437.337C848.983 436.885 849.694 435.077 850.533 433.205C851.824 430.494 852.792 429.461 855.568 427.912C858.86 425.975 862.605 425.33 864.218 426.427C867.317 428.493 867.317 435.013 864.218 446.245C860.797 458.576 856.214 467.42 846.724 480.137C845.239 482.074 842.463 485.882 840.462 488.529C835.104 495.63 831.618 499.052 826.906 501.698C822.258 504.281 819.546 504.603 814.963 502.925ZM861.313 497.115L865.961 499.181C866.925 499.626 877.558 504.734 890.329 510.871C910.92 520.765 937.071 533.33 937.23 533.33C937.489 533.33 938.7 530.529 938.973 527.262C939.619 520.226 942.007 510.672 944.783 504.022C946.074 501.053 947.107 497.341 947.107 497.019C947.107 496.871 946.058 496.448 944.34 495.755C942.294 494.93 939.302 493.723 936.004 492.144C919.736 484.333 887.91 468.388 883.972 465.999C880.099 463.74 879.324 463.546 879.324 465.031C879.324 466.968 875.387 475.941 872.352 480.783C870.739 483.429 867.575 488.206 865.316 491.37L861.313 497.115ZM936.133 521.71C937.984 522.783 934.777 524.357 934.003 524.615C929.441 525.003 924.071 524.145 919.671 521.581C917.371 519.95 899.256 509.886 887.24 503.211C881.747 500.159 877.528 497.815 876.678 497.309C873.966 495.695 871.384 493.952 870.932 493.435C869.577 491.692 870.868 490.918 874.676 491.24C876.966 491.434 932.134 519.393 936.133 521.71ZM673.716 690.716C678.696 689.626 686.426 686.364 691.348 684.287C692.552 683.779 693.587 683.342 694.374 683.025C698.378 681.41 710.577 664.184 714.967 644.753C718.13 630.421 719.744 610.022 717.937 606.6C716.847 604.619 723.321 611.266 728.143 616.217C729.605 617.717 730.915 619.062 731.816 619.963C759.962 647.916 801.858 670.381 845.368 680.903C867.059 686.197 882.488 688.069 903.21 688.069C938.005 688.069 965.441 681.226 990.359 666.185C991.543 665.47 992.652 664.814 993.709 664.188C1002.4 659.045 1007.57 655.982 1021.73 640.04C1037.62 622.158 1051.75 580.649 1056.46 566.318C1058.53 559.863 1063.56 534.186 1063.56 527.779C1063.56 520.193 1060.92 516.611 1057.3 512.931C1050.91 506.669 1042.26 504.41 1035.1 507.121L1031.74 508.412L1030.71 504.991C1029.22 499.826 1026.12 495.695 1021.35 492.596C1014.24 487.884 1013.21 487.561 1006.82 487.561C1001.85 487.561 1000.49 487.819 997.331 489.304L993.651 490.982L992.877 488.658C991.392 483.881 986.412 477.222 982.548 475.295C979.121 473.587 973.189 473.43 969.056 474.198C960.018 475.876 953.563 480.072 950.916 485.947C950.141 487.754 949.173 489.175 948.786 489.175C948.463 489.175 935.746 485.623 920.575 478.909C918.016 477.773 915.612 476.708 913.355 475.707C886.113 463.632 880.208 461.015 880.745 457.736C881.196 454.96 881.067 453.411 880.293 451.023C878.937 447.02 877.388 445.923 872.998 445.923C869.512 445.923 869.512 445.923 869.899 444.18C871.965 434.303 871.901 428.622 869.706 425.007C868.221 422.618 866.478 421.65 862.475 421.069C860.151 420.746 859.054 420.94 856.472 422.36C854.729 423.264 853.244 423.909 853.115 423.78C852.986 423.651 853.438 420.101 854.148 415.905C859.441 384.854 855.352 358.1 841.86 329.696C841.731 329.424 841.581 329.103 841.41 328.735C837.308 319.929 820.815 284.52 773.648 266.653C771.513 265.844 769.493 265.063 767.551 264.311L767.551 264.311C751.484 258.092 740.803 253.957 715.032 254C686.146 254.048 676.363 258.132 657.319 266.847C654.673 268.073 652.349 268.783 652.155 268.525C651.961 268.202 650.735 267.428 649.508 266.782C648.282 266.137 645.635 264.523 643.698 263.232C638.146 259.488 634.725 257.938 632.982 258.326C630.981 258.842 630.981 260.52 632.982 261.295C633.821 261.618 634.79 262.715 635.177 263.813C636.016 266.137 636.984 266.395 637.565 264.458C637.824 263.748 638.211 263.232 638.405 263.361C638.478 263.398 638.724 263.513 639.099 263.688L639.099 263.688C640.043 264.13 641.804 264.955 643.698 265.878C646.345 267.17 649.25 268.525 650.025 268.848C651.445 269.364 650.993 269.752 644.86 273.367C620.91 287.44 601.415 309.324 590.505 334.242C588.826 337.987 587.342 340.311 585.792 341.602C581.854 344.894 574.108 354.254 572.3 357.934C571.332 359.935 569.266 363.034 567.652 364.841C566.103 366.649 564.424 368.973 563.843 369.941C563.327 370.974 562.811 371.684 562.617 371.555C562.488 371.362 562.681 368.198 563.133 364.519C564.102 355.933 564.102 353.673 563.327 353.48C562.165 353.157 560.487 357.676 559.776 363.292C559.26 366.714 559.131 371.878 559.454 377.172L559.841 385.564L555.258 378.14C553.682 375.658 552.13 373.175 551.027 371.412L551.027 371.411L551.026 371.411L551.026 371.41L551.024 371.406L551.022 371.405L551.022 371.404L551.022 371.403L551.021 371.402L551.019 371.399C550.32 370.28 549.802 369.453 549.577 369.102C547.898 366.649 546.93 362.969 547.64 361.743C548.027 361.033 547.963 360.71 547.317 360.71C545.962 360.71 543.315 365.035 541.572 370.006C540.733 372.33 539.893 374.267 539.635 374.267C538.667 374.267 539.119 351.156 540.152 343.732C542.282 329.078 547.898 311.003 550.416 311.003C550.932 311.003 551.384 310.744 551.384 310.357C551.384 309.195 549.706 309.647 548.35 311.132C545.316 314.424 541.314 324.559 538.796 335.34C537.053 342.764 535.956 352.318 535.568 362.711C535.246 371.684 535.375 373.169 536.666 378.075C538.151 383.562 539.313 385.176 541.314 384.402C542.024 384.143 542.347 383.175 542.347 381.368C542.347 379.947 543.121 375.687 544.09 371.878L545.768 365.035L546.478 367.876C547.382 371.168 552.675 381.368 557.452 388.791C560.745 393.827 560.809 394.15 561.907 402.025C562.488 406.48 564.295 417.314 568.491 433.98C572.199 448.706 593.041 463.313 598.246 466.961L598.246 466.961L598.249 466.963C598.933 467.442 599.346 467.732 599.413 467.807C600.059 468.517 600.963 468.904 601.479 468.711C602.06 468.517 602.383 468.775 602.383 469.485C602.383 470.131 602.835 470.97 603.351 471.357C603.997 471.809 604.449 473.552 604.578 476.586C604.901 482.655 609.419 494.275 612.905 498.083C615.165 500.536 619.877 501.569 625.106 500.665C628.528 500.149 629.496 499.762 629.173 498.987C628.98 498.471 630.206 499.116 631.885 500.407C651.509 515.384 671.392 524.357 693.728 528.23C702.379 529.715 716.71 530.554 724.521 529.973C731.429 529.522 731.429 529.522 731.106 530.877C730.654 532.685 731.235 533.782 740.724 549.856C748.277 562.574 748.923 563.413 757.315 571.999C775.132 590.397 794.563 604.664 816.577 615.703C837.299 626.032 870.383 634.617 900.628 637.329C930.872 640.04 952.594 612.281 952.53 605.18C952.401 595.432 951.045 589.041 947.753 582.844C944.525 576.841 942.395 574.775 932.711 568.319C921.931 561.154 915.282 555.279 910.892 549.017C908.116 545.079 907.083 540.625 907.083 538.237C907.083 536.687 909.084 533.201 912.054 532.491C914.765 531.781 915.282 531.846 918.316 533.33C920.123 534.17 924.836 536.364 928.709 538.237C932.647 540.044 936.456 541.852 937.23 542.239C939.514 542.873 940.48 547.344 941.003 549.767C941.12 550.308 941.215 550.747 941.297 551.018C942.201 554.375 946.478 558.71 949.238 560.185C954.083 562.777 966.023 563.123 969.315 559.573C970.155 558.669 972.937 557.558 973.51 557.894C974.084 558.231 976.157 561.025 976.157 563.284C976.222 567.157 978.223 570.708 982.483 574.258C990.553 580.972 996.815 582.586 1003.14 579.616C1006.43 578.067 1009.13 577.462 1009.13 577.462C1009.13 577.462 1011.82 580.896 1011.99 582.069C1013.25 591.242 1026.83 595.087 1030.45 595.474C1031.28 595.557 1032.89 595.202 1034.53 594.842C1036.72 594.361 1038.95 593.87 1039.42 594.4C1040.34 595.44 1023.99 622.481 1021.73 625.902C1000.24 658.18 958.404 677.934 907.212 680C873.966 681.355 833.103 672.059 797.662 655.146C775.003 644.236 754.927 630.873 733.43 612.152C729.686 608.924 725.36 605.245 723.811 603.954C722.262 602.727 718.582 598.531 715.742 594.658C710.965 588.202 708.253 585.878 708.253 588.073C708.253 589.041 711.352 594.98 714.902 600.855C716.323 603.179 717.226 604.793 716.904 604.535C716.581 604.276 715.548 608.924 714.58 614.863C711.416 633.907 706.188 652.693 700.894 664.377C697.989 670.704 692.419 675.428 690.74 676.719C684.543 681.432 675.266 683.55 662.419 684.841C646.151 686.455 622.201 682.84 603.932 675.997C599.091 674.19 586.631 668.961 585.792 668.38C585.742 668.329 585.456 666.472 585.057 663.88C584.944 663.149 584.823 662.36 584.695 661.537C582.371 645.592 579.143 584.2 579.143 555.796C579.143 544.047 579.014 541.464 578.239 541.464C576.625 541.464 575.98 543.014 575.27 548.565C573.656 561.218 573.979 627.258 575.722 641.137L576.109 644.301L573.914 643.074C570.557 641.137 557.775 628.162 553.321 622.158C549.55 617.026 547.309 610.452 545.632 605.534C545.242 604.39 544.883 603.336 544.541 602.41C535.181 576.459 538.473 547.339 551.384 521.129C562.359 498.793 575.851 486.399 595.605 480.395C598.832 479.427 601.673 478.394 601.996 478.136C603.222 476.974 595.346 477.555 591.021 478.91C576.948 483.236 562.23 495.049 552.224 510.155C538.151 531.329 531.824 562.574 536.278 589.235C537.311 595.561 541.507 609.247 542.669 610.216C542.772 610.318 543.303 611.432 544.106 613.117C546.327 617.775 550.627 626.796 553.708 630.873C557.452 635.973 568.75 647.076 573.462 650.498L576.432 652.628L576.884 657.857C577.723 667.863 578.046 668.767 582.564 672.124C593.862 680.71 616.133 688.715 636.274 691.555C645.635 692.846 665.97 692.394 673.716 690.716ZM891.913 630.099C854.406 626.806 809.088 608.923 776.294 581.294C762.48 569.609 744.533 546.887 737.432 534.299C735.947 531.716 734.85 530.49 733.559 530.167C732.203 529.78 733.365 529.392 738.917 528.489C762.35 524.486 785.138 514.738 803.537 500.859L806.248 498.858L807.023 500.73C808.766 504.926 815.479 509.187 820.45 509.187C822.451 509.187 829.165 506.153 833.232 503.377L836.008 501.505L838.267 503.764C840.333 505.83 840.72 505.959 844.594 505.959C849.048 505.959 854.406 503.958 857.376 501.117L858.989 499.633L863.573 502.667C866.026 504.41 872.869 508.218 878.743 511.253C887.523 515.771 896.819 521 905.663 526.423L907.083 527.327L905.727 529.134C904.307 531.071 901.662 534.751 901.662 540.367C901.662 546.693 908.24 558.06 920.833 565.866C930.727 571.999 947.753 584.062 947.107 601.694C947.029 603.824 944.654 609.118 941.491 613.895C939.425 616.929 933.68 621.448 928.451 624.095C919.542 628.549 903.855 631.131 891.913 630.099ZM547.705 340.311C549.448 340.698 550.61 341.279 550.351 341.537C549.512 342.376 545.058 341.989 544.025 340.956C542.411 339.407 542.798 338.309 545.058 337.857C546.22 337.664 547.963 336.695 548.931 335.727C549.9 334.759 550.739 334.307 550.739 334.63C550.739 335.469 547.511 338.438 545.897 339.084C544.864 339.536 545.187 339.73 547.705 340.311ZM573.398 341.343C575.27 340.311 574.882 339.6 572.688 339.923C570.493 340.246 570.364 339.988 571.784 337.793C572.365 336.954 572.688 335.727 572.558 335.082C572.365 334.242 571.913 334.63 570.88 336.695C570.105 338.18 569.008 339.407 568.491 339.407C566.878 339.407 566.748 340.698 568.298 341.279C570.299 342.118 571.848 342.118 573.398 341.343ZM551.062 306.096C549.512 306.355 544.671 308.291 540.41 310.422C536.085 312.487 532.405 314.23 532.147 314.166C525.562 313.456 534.729 302.481 551.384 291.249C567.329 280.468 578.11 274.787 588.116 271.882C594.378 270.075 601.415 269.816 603.416 271.301C604.513 272.14 604.126 272.205 599.349 272.269C589.02 272.269 577.077 277.563 557.646 290.539C547.576 297.252 535.891 306.871 535.891 308.42C535.891 308.743 537.763 308.098 540.087 307.065C545.058 304.805 550.158 303.643 552.417 304.16C554.806 304.805 554.289 305.644 551.062 306.096ZM576.044 311.648C582.113 310.422 582.371 310.357 582.371 309.711C582.371 309.389 580.047 309.066 577.142 308.937L571.913 308.743L576.754 303.256C579.401 300.222 582.5 297.188 583.597 296.478C585.986 294.928 586.115 293.831 584.178 293.185L582.694 292.733L584.307 292.152C585.211 291.83 586.89 291.701 588.052 291.894C589.795 292.152 590.182 292.023 589.988 291.12C589.795 290.216 589.085 290.022 585.921 290.087C576.69 290.216 572.752 292.669 579.982 293.831C581.983 294.154 583.662 294.67 583.662 294.993C583.662 295.251 583.339 295.509 582.952 295.509C581.725 295.509 571.332 306.032 570.041 308.614C568.04 312.423 569.137 313.004 576.044 311.648ZM618.651 286.601C616.779 286.73 616.327 287.053 616.456 287.956L616.476 288.088C616.548 288.565 616.59 288.84 616.483 288.923C616.338 289.035 615.923 288.8 614.947 288.246L614.777 288.15C613.551 287.504 613.422 287.182 614.132 286.665C614.584 286.278 615.81 285.697 616.779 285.503L618.586 285.051L617.231 283.631C616.52 282.792 616.133 282.017 616.327 281.759C616.843 281.243 623.17 281.953 624.073 282.663C624.461 282.986 625.042 282.921 625.429 282.534C626.333 281.63 627.559 282.34 627.559 283.76C627.559 284.535 627.366 284.599 626.785 284.018C626.268 283.502 625.816 283.502 625.235 283.954C624.719 284.406 624.332 284.406 624.009 283.889C623.815 283.567 622.589 283.244 621.298 283.244C620.106 283.244 619.543 283.244 619.428 283.471C619.325 283.674 619.583 284.061 620.071 284.793C621.101 286.402 621.04 286.407 618.673 286.599L618.651 286.601ZM608.838 269.429C608.838 268.59 608.064 267.105 607.095 266.137L605.288 264.329L614.971 264.716C620.329 264.975 626.397 265.556 628.528 266.137C630.658 266.653 633.111 267.04 634.015 267.04C635.371 267.04 635.112 266.782 632.595 265.427C628.205 263.167 622.589 262.07 611.808 261.295C598.897 260.391 592.377 261.618 593.603 264.846C593.797 265.491 594.83 265.814 596.379 265.814C599.542 265.814 604.707 267.686 606.45 269.429C608.322 271.301 608.838 271.301 608.838 269.429ZM577.335 440.371C582.564 447.085 589.472 454.702 592.7 457.284C594.636 458.834 596.315 460.125 596.444 460.125C596.508 460.125 595.088 457.155 593.281 453.54C585.986 439.015 581.725 424.555 579.724 407.9C579.272 404.22 578.562 401.121 577.787 399.83C576.238 397.248 576.238 393.891 577.852 390.728C578.691 389.05 579.143 386.919 579.143 384.595V381.045L576.044 384.273C573.01 387.436 570.105 388.727 570.105 386.79C570.105 385.37 574.882 378.527 577.4 376.397C579.401 374.718 579.659 374.137 580.305 369.102C580.757 366.068 581.79 360.71 582.629 357.159C583.533 353.609 584.049 350.575 583.92 350.446C583.468 349.994 568.298 367.417 566.232 372.975C565.778 374.196 564.554 376.332 563.585 377.623L561.907 379.778C561.907 379.778 562.428 382.796 563.004 386.589C563.586 390.42 563.859 393.054 564.103 395.4C564.428 398.539 564.7 401.162 565.586 405.447C566.619 410.74 567.652 415.324 567.91 415.646C568.104 416.034 568.943 419.003 569.783 422.296C571.59 429.59 574.624 436.82 577.335 440.371ZM839.3 501.44L837.945 500.084C837.945 500.084 860.445 471.497 864.477 460.964C867.553 452.926 869.364 450.646 871.807 450.646C873.174 450.646 874.289 450.958 874.806 451.733C875.709 453.088 876.58 454.767 875.418 460.512C873.482 469.808 870.512 475.941 861.603 489.175C859.538 492.209 856.891 495.566 855.729 496.728C853.018 499.245 846.918 501.827 843.367 502.408C841.108 502.731 840.462 502.602 839.3 501.44Z" fill="#00160A"/>
<path d="M1018.05 564.591C1026.08 542.709 1024.87 538.047 1023.48 537.591C1023.48 537.591 1020.41 539.334 1019.05 543.013C1016.54 549.921 1007.92 567.996 1004.69 571.224C1000.88 575.033 1000.88 575.033 997.008 575.033C993.135 575.033 981.964 569.2 980.443 563.45C978.01 554.25 988.487 522.291 988.745 520.484L987.002 519.257C985.84 520.355 970.726 566.189 950.852 554.246C948.576 552.879 943.75 546.435 943.363 543.013C941.212 533.072 951.082 498.309 952.76 491.169C954.263 484.777 962.084 478.846 971.703 478.846C986.486 478.846 984.5 491.768 991.122 496.322C994.056 498.339 998.879 494.681 1000.37 494.403C1008.69 492.854 1011.88 494.658 1017.99 499.503C1022.7 503.243 1026.19 510.645 1030.03 513.254C1032.16 514.702 1034.42 512.722 1035.16 512.35C1038.2 510.825 1044.71 511.962 1046.52 513.254C1049.17 514.409 1055.67 520.651 1056.69 524.281C1061.34 540.735 1046.66 577.213 1041.12 584.056C1031.94 595.383 1010.02 586.474 1018.05 564.591Z" fill="white"/>
<path fill-rule="evenodd" clip-rule="evenodd" d="M648.205 509.104C666.086 520.471 684.525 527.896 705.539 529.933C722.115 531.51 744.466 529.342 760.52 524.085C774.029 519.683 792.302 507.488 804.506 497.172C828.196 477.197 843.141 445.996 849.667 412.88C850.581 408.214 851.974 396.488 851.909 384.858C851.909 371.322 845.992 334.333 828.066 313.005C791.092 269.017 730.314 249.202 679.235 266.133C660.809 272.24 641.191 283.306 626.377 297.761C607.712 316.093 593.942 341.062 588.46 366.556C582.717 393.496 590.187 425.692 603.174 452.107C613.551 473.133 630.649 497.868 648.205 509.104ZM822.453 429.7C810.184 466.825 778.206 494.553 738.005 502.963C731.87 504.212 727.628 504.672 719.014 504.803C712.945 505 706.875 504.935 705.635 504.803C677.508 501.386 656.102 490.939 636.393 471.096C627.778 462.357 624.124 457.626 618.772 448.295C610.353 433.511 605.85 418.399 604.48 400.198C599.781 337.842 644.094 285.868 706.484 280.48C730.957 278.378 758.106 285.934 778.728 300.652C786.364 306.106 800.199 319.904 804.507 326.344C806.269 328.906 823.367 354.072 826.369 368.527C830.22 387.319 828.719 410.842 822.453 429.7Z" fill="white"/>
<path fill-rule="evenodd" clip-rule="evenodd" d="M848.448 382.564C848.448 425.894 827.952 473.265 801.5 493.496C788.88 503.148 772.387 514.836 758.025 519.351C736.977 525.968 703.639 525.097 703.639 525.097C703.639 525.097 737.651 520.55 750.255 515.478C786.398 500.932 806.128 478.604 818.312 457.18C842.361 414.891 848.448 381.511 848.448 382.564Z" fill="#E7EAEE"/>
<path fill-rule="evenodd" clip-rule="evenodd" d="M706.288 496.918C688.864 494.684 671.569 488.442 657.603 479.178C649.315 473.724 636.785 460.911 630.716 451.778C622.036 438.636 616.293 424.575 613.487 409.463C611.463 398.49 611.529 381.603 613.552 371.813C615.64 361.825 618.316 354.203 623.08 344.544C628.627 333.374 634.501 325.161 643.311 316.29C658.321 301.178 675.746 291.585 696.499 286.985C703.221 285.54 727.564 284.357 728.412 285.474C728.608 285.802 729.913 286.657 731.284 287.379C732.654 288.168 736.309 290.928 739.311 293.622C743.814 297.564 745.837 300.061 749.753 306.237C752.428 310.442 754.582 314.253 754.582 314.582C754.582 315.305 756.67 316.619 757.845 316.619C759.477 316.619 760.586 311.691 760.912 303.018C761.108 298.221 761.5 294.279 761.761 294.279C762.674 294.279 772.725 299.864 777.424 303.018C786.625 309.194 795.827 317.867 802.615 326.935C805.682 331.009 806.139 332.06 806.139 334.557C806.139 336.857 806.791 338.631 808.814 342.179C813.905 351.115 817.886 362.351 820.3 374.769C821.867 383.114 821.867 398.884 820.235 407.623C815.797 431.672 802.615 455.589 785.451 470.767C770.897 483.58 755.43 491.465 737.157 495.341C730.892 496.721 712.097 497.641 706.288 496.918ZM659.626 451.975C660.213 451.318 660.605 450.332 660.409 449.872C660.35 449.734 659.533 449.347 658.338 448.781L658.337 448.781L658.337 448.781C655.549 447.461 650.701 445.167 648.6 442.776C640.247 433.183 637.18 426.02 635.287 411.236C633.46 396.847 634.995 387.119 638.289 371.484C639.896 363.857 644.167 357.557 646.824 353.637C648.631 350.972 649.692 349.408 648.662 349.275C646.117 348.881 645.725 349.078 643.049 351.64C637.306 357.16 634.696 361.562 631.955 370.038C627.713 383.311 626.893 419.181 635.287 435.351C643.681 451.521 658.125 453.683 659.626 451.975ZM752.428 396.781C751.32 406.988 746.62 421.749 741.138 428.189C738.593 431.211 729.25 436.402 721.364 435.351C713.746 434.335 707.789 430.751 702.699 423.063C698.326 416.427 696.068 408.372 694.541 398.226C691.905 380.707 703.417 360.313 708.377 355.254C713.402 350.063 716.991 348.223 721.56 348.158C725.997 348.158 728.869 349.143 733.372 352.363C741.595 358.145 754.582 376.946 752.428 396.781ZM664.456 342.442C665.761 340.931 665.957 340.208 665.565 337.383C665.304 334.754 664.782 333.703 663.411 332.586C660.997 330.615 657.995 330.615 655.776 332.718C654.21 334.229 654.014 334.754 654.21 338.368C654.405 342.245 654.536 342.508 656.69 343.691C659.561 345.268 662.367 344.808 664.456 342.442ZM705.178 301.901C693.431 310.377 688.341 313.86 683.055 317.145C678.878 319.773 677.573 319.839 677.573 317.474C677.573 316.225 678.486 314.845 680.836 312.677L684.099 309.655L677.769 308.8C670.655 307.88 663.737 305.909 662.236 304.398C659.756 301.835 661.91 301.244 668.958 302.558C672.091 303.084 678.16 303.741 682.467 303.872L690.299 304.201L695.977 300.061C708.441 290.994 721.363 285.869 727.563 287.446C731.414 288.366 730.957 289.417 726.584 289.942C721.559 290.534 718.492 292.242 705.178 301.901Z" fill="white"/>
<path d="M719.873 423.329C719.873 423.006 720.26 422.683 720.777 422.683C721.293 422.683 721.939 423.006 722.132 423.329C722.326 423.716 721.939 423.974 721.229 423.974C720.454 423.974 719.873 423.716 719.873 423.329Z" fill="white"/>
<path d="M723.747 422.747C723.747 422.037 725.36 421.392 727.168 421.392C728.588 421.456 728.588 421.456 727.362 422.36C725.941 423.457 723.747 423.651 723.747 422.747Z" fill="white"/>
<path d="M713.741 421.069C713.547 420.553 713.289 419.649 713.095 419.132C712.901 418.487 713.224 418.164 714.063 418.164C714.773 418.164 715.354 418.551 715.354 419.068C715.354 419.584 715.548 420.423 715.742 421.004C716 421.715 715.806 422.037 715.096 422.037C714.515 422.037 713.87 421.585 713.741 421.069Z" fill="white"/>
<path d="M717.162 419.455C716.839 417.519 717.549 416.873 719.873 416.873C720.583 416.873 721.164 417.519 721.423 418.616C721.939 420.488 721.1 421.392 718.84 421.392C717.807 421.392 717.356 420.94 717.162 419.455Z" fill="white"/>
<path d="M710.577 419.778C709.351 418.81 709.351 418.81 710.706 418.81C711.546 418.81 712.127 419.197 712.127 419.778C712.127 420.94 712.127 420.94 710.577 419.778Z" fill="white"/>
<path d="M723.553 419.713C722.714 418.874 723.101 416.357 724.134 415.969C726.006 415.259 726.845 415.582 727.233 417.26C727.491 418.229 727.62 419.068 727.491 419.132C726.974 419.713 723.94 420.101 723.553 419.713Z" fill="white"/>
<path d="M729.298 418.358C729.105 418.164 728.911 417.325 728.911 416.55C728.911 415.453 729.428 415.001 730.977 414.678C732.333 414.42 733.172 414.549 733.559 415.065C734.205 416.098 734.205 417.389 733.624 417.712C732.462 418.358 729.75 418.745 729.298 418.358Z" fill="white"/>
<path d="M707.608 416.356C707.608 415.582 708.189 414.936 709.028 414.742C710.707 414.291 710.642 414.226 710.965 415.904C711.094 416.873 710.771 417.26 709.415 417.389C707.995 417.583 707.608 417.325 707.608 416.356Z" fill="white"/>
<path d="M712.514 416.421C711.61 415.453 712.191 413.645 713.417 413.645C714.257 413.645 714.709 414.097 714.709 414.872C714.709 416.098 713.224 417.131 712.514 416.421Z" fill="white"/>
<path d="M716.387 414.484C715.871 413.258 716.968 412.354 719.098 412.354C720.067 412.354 720.519 412.741 720.519 413.581C720.519 414.291 719.938 414.936 719.098 415.194C716.968 415.711 716.839 415.711 716.387 414.484Z" fill="white"/>
<path d="M735.044 414.291C735.237 413.968 735.56 413.645 735.754 413.645C735.948 413.645 735.883 413.968 735.689 414.291C735.496 414.678 735.173 414.936 734.979 414.936C734.786 414.936 734.85 414.678 735.044 414.291Z" fill="white"/>
<path d="M722.197 413.193C721.681 411.902 722.326 411.257 724.392 410.934C725.554 410.805 726.071 411.063 726.2 411.967C726.652 414.097 722.972 415.259 722.197 413.193Z" fill="white"/>
<path d="M706.704 412.096C706.123 409.966 706.252 409.772 707.931 409.772C708.834 409.772 709.544 410.03 709.544 410.353C709.544 410.676 709.738 411.386 709.932 411.902C710.125 412.548 709.738 412.935 708.641 413.129C707.414 413.387 706.962 413.129 706.704 412.096Z" fill="white"/>
<path d="M728.265 411.386C728.265 410.224 728.717 409.707 729.944 409.384C731.751 408.933 732.784 409.836 732.784 411.902C732.784 412.741 732.268 412.999 730.525 412.999C728.523 412.999 728.265 412.806 728.265 411.386Z" fill="white"/>
<path d="M704.767 411.386C704.574 410.869 704.703 410.417 705.025 410.417C705.413 410.417 705.671 410.869 705.671 411.386C705.671 411.902 705.542 412.354 705.413 412.354C705.284 412.354 705.025 411.902 704.767 411.386Z" fill="white"/>
<path d="M711.287 411.902C710.384 411.063 710.9 409.256 712.062 408.933C712.772 408.739 713.482 408.804 713.676 408.997C714.451 409.708 713.999 411.58 713.03 411.967C711.804 412.419 711.804 412.419 711.287 411.902Z" fill="white"/>
<path d="M734.334 411.45C733.623 409.578 734.398 408.158 736.206 407.964C737.561 407.771 737.949 408.029 737.949 409.062C737.949 411.192 737.239 412.354 735.947 412.354C735.237 412.354 734.527 411.967 734.334 411.45Z" fill="white"/>
<path d="M715.806 410.611C715.032 409.901 715.29 408.61 716.387 408.223C717.614 407.771 720.196 409.062 719.486 409.772C718.582 410.547 716.258 411.128 715.806 410.611Z" fill="white"/>
<path d="M721.422 408.997C720.841 408.093 722.907 406.544 724.586 406.544C725.36 406.544 725.683 406.931 725.554 407.641C725.296 408.932 722.003 409.965 721.422 408.997Z" fill="white"/>
<path d="M703.734 408.545C703.734 408.222 703.541 407.512 703.347 406.931C703.153 406.35 703.218 405.898 703.605 405.898C704.444 405.898 705.09 408.352 704.315 408.868C703.993 409.062 703.734 408.933 703.734 408.545Z" fill="white"/>
<path d="M705.477 407.061C705.09 405.64 705.865 404.607 707.35 404.607C708.189 404.607 709.028 407.125 708.512 407.964C707.801 409.062 705.8 408.416 705.477 407.061Z" fill="white"/>
<path d="M709.996 407.383C709.028 406.415 709.609 404.091 710.9 403.768C711.868 403.51 712.385 403.833 712.901 404.995C713.288 405.834 713.482 406.673 713.353 406.802C712.707 407.383 710.383 407.835 709.996 407.383Z" fill="white"/>
<path d="M727.426 407.383C726.587 406.544 726.974 406.028 728.911 405.318C730.525 404.801 730.977 404.866 731.3 405.64C731.881 407.19 728.653 408.674 727.426 407.383Z" fill="white"/>
<path d="M733.107 405.899C732.461 404.866 733.365 403.962 735.043 403.962C737.045 403.962 737.626 405.64 735.818 406.157C733.881 406.673 733.559 406.609 733.107 405.899Z" fill="white"/>
<path d="M738.594 404.349C738.594 403.381 739.756 402.348 740.273 402.864C740.725 403.316 739.821 405.253 739.175 405.253C738.852 405.253 738.594 404.866 738.594 404.349Z" fill="white"/>
<path d="M702.895 403.51C702.637 403.316 702.443 402.477 702.508 401.767C702.508 400.541 702.572 400.541 703.153 401.961C703.799 403.51 703.67 404.285 702.895 403.51Z" fill="white"/>
<path d="M704.122 402.541C703.541 400.282 703.605 400.088 705.284 400.088C707.156 400.088 708.318 402.477 706.898 403.381C705.413 404.284 704.574 404.026 704.122 402.541Z" fill="white"/>
<path d="M726.329 403.833C726.329 403.639 726.651 402.606 727.039 401.444C727.942 398.862 729.944 398.733 730.396 401.251C730.589 402.219 730.654 403.058 730.589 403.123C730.266 403.51 726.329 404.091 726.329 403.833Z" fill="white"/>
<path d="M708.705 402.219C708.447 402.025 708.253 401.25 708.253 400.54C708.253 399.507 708.447 399.443 709.222 400.088C709.738 400.54 710.19 401.315 710.19 401.767C710.19 402.735 709.415 402.993 708.705 402.219Z" fill="white"/>
<path d="M731.945 400.928C731.558 398.926 732.397 398.023 734.398 398.281C735.366 398.41 735.689 398.991 735.689 400.411C735.689 402.025 735.431 402.412 734.011 402.542C732.591 402.735 732.268 402.412 731.945 400.928Z" fill="white"/>
<path d="M738.271 401.186C737.432 398.604 737.69 397.829 739.433 397.636C740.982 397.442 741.176 397.636 741.176 399.314C741.176 400.734 740.789 401.315 739.82 401.574C739.11 401.767 738.4 401.574 738.271 401.186Z" fill="white"/>
<path d="M701.927 397.506C701.927 396.28 702.056 395.763 702.25 396.409C702.379 396.99 702.379 398.023 702.25 398.668C702.056 399.249 701.927 398.733 701.927 397.506Z" fill="white"/>
<path d="M703.541 398.345C702.702 397.571 703.089 395.053 704.122 394.666C705.607 394.085 706.317 394.795 706.317 396.925C706.317 398.281 705.994 398.797 705.155 398.797C704.509 398.797 703.734 398.604 703.541 398.345Z" fill="white"/>
<path d="M707.414 396.602C707.156 395.634 707.027 394.601 707.285 394.408C707.93 393.762 708.318 394.795 708.124 396.667L707.93 398.474L707.414 396.602Z" fill="white"/>
<path d="M728.265 396.151C728.265 395.441 728.588 395.053 728.911 395.247C729.298 395.441 729.556 396.086 729.556 396.603C729.556 397.119 729.298 397.506 728.911 397.506C728.588 397.506 728.265 396.925 728.265 396.151Z" fill="white"/>
<path d="M731.17 396.99C730.267 396.022 730.977 394.279 732.461 393.891C734.334 393.439 734.398 393.439 734.979 395.311C735.366 396.473 735.108 396.732 733.43 396.99C732.397 397.184 731.364 397.119 731.17 396.99Z" fill="white"/>
<path d="M737.109 395.763C736.399 395.118 736.593 392.988 737.303 392.988C737.69 392.988 737.948 392.729 737.948 392.342C737.948 392.019 737.561 391.696 737.045 391.696C735.947 391.696 735.044 388.533 735.947 387.629C737.109 386.467 738.4 387.694 739.175 390.857C739.627 392.536 740.079 394.472 740.272 395.118C740.531 395.957 740.272 396.215 739.046 396.215C738.207 396.215 737.303 396.022 737.109 395.763Z" fill="white"/>
<path d="M740.595 392.342C740.144 390.405 738.982 386.532 738.142 383.691C736.851 379.56 736.722 378.527 737.432 378.075C737.884 377.752 738.465 377.494 738.659 377.494C739.369 377.494 741.951 390.728 741.693 393.31L741.499 395.892L740.595 392.342Z" fill="white"/>
<path d="M701.281 392.019C701.281 390.986 701.41 390.599 701.604 391.244C701.733 391.825 701.733 392.729 701.604 393.181C701.41 393.568 701.281 393.116 701.281 392.019Z" fill="white"/>
<path d="M702.572 391.89C702.831 389.631 704.703 389.114 705.219 391.18C705.671 392.859 705.8 392.665 703.863 393.31C702.508 393.698 702.379 393.569 702.572 391.89Z" fill="white"/>
<path d="M729.815 391.309C729.298 389.437 730.396 388.34 732.461 388.598C734.011 388.792 734.592 391.567 733.301 392.407C731.687 393.44 730.202 392.988 729.815 391.309Z" fill="white"/>
<path d="M706.316 390.793C706.316 389.695 706.639 389.114 707.349 389.114C707.995 389.114 708.253 389.566 708.124 390.534C707.801 392.6 706.316 392.794 706.316 390.793Z" fill="white"/>
<path d="M700.571 388.081C700.571 387.371 700.765 387.178 700.959 387.694C701.152 388.146 701.088 388.727 700.894 388.921C700.7 389.179 700.507 388.792 700.571 388.081Z" fill="white"/>
<path d="M701.798 387.888C701.798 386.92 702.185 386.532 703.154 386.532C704.057 386.532 704.38 386.855 704.251 387.63C703.928 389.308 701.798 389.502 701.798 387.888Z" fill="white"/>
<path d="M705.348 387.307C704.897 386.145 704.897 386.145 706.833 385.628C707.995 385.241 708.253 385.435 708.253 386.403C708.253 387.952 705.929 388.727 705.348 387.307Z" fill="white"/>
<path d="M728.717 386.403C728.265 384.789 729.104 383.95 731.364 383.95C732.461 383.95 732.784 384.337 732.784 385.564C732.784 386.532 732.397 387.177 731.88 387.177C731.364 387.177 730.525 387.371 730.008 387.565C729.427 387.758 728.975 387.371 728.717 386.403Z" fill="white"/>
<path d="M734.334 384.918C733.817 383.627 734.592 382.659 736.077 382.659C736.981 382.659 737.303 383.111 737.303 384.273C737.303 385.435 736.981 385.886 736.012 385.886C735.302 385.886 734.527 385.435 734.334 384.918Z" fill="white"/>
<path d="M701.152 384.014C701.152 382.659 702.637 381.109 703.283 381.819C703.541 382.013 703.735 382.917 703.735 383.756C703.735 384.789 703.347 385.241 702.443 385.241C701.604 385.241 701.152 384.789 701.152 384.014Z" fill="white"/>
<path d="M704.703 383.24C704.186 381.626 704.767 380.916 706.962 380.593C708.964 380.335 709.609 382.465 707.866 383.756C706.188 384.983 705.155 384.789 704.703 383.24Z" fill="white"/>
<path d="M728.072 382.852C727.62 382.465 727.426 380.077 727.814 380.077C727.878 380.077 728.847 379.818 730.009 379.496C731.945 378.915 732.074 378.979 732.01 380.722C731.945 382.013 731.558 382.659 730.59 382.917C728.847 383.369 728.588 383.369 728.072 382.852Z" fill="white"/>
<path d="M725.683 381.367C725.683 380.916 725.877 380.722 726.135 380.916C726.329 381.174 726.329 381.561 726.135 381.819C725.877 382.013 725.683 381.819 725.683 381.367Z" fill="white"/>
<path d="M732.913 380.335C733.107 379.237 735.108 377.623 735.56 378.14C735.754 378.333 736.076 379.108 736.27 379.947C736.722 381.238 736.528 381.368 734.721 381.368C733.171 381.368 732.72 381.109 732.913 380.335Z" fill="white"/>
<path d="M701.798 380.27C701.798 379.948 702.121 379.302 702.443 378.786C702.96 378.011 703.089 378.075 703.089 379.302C703.089 380.077 702.831 380.722 702.443 380.722C702.121 380.722 701.798 380.529 701.798 380.27Z" fill="white"/>
<path d="M703.734 378.85C703.734 377.042 705.09 376.461 706.123 377.817C706.768 378.785 706.768 379.108 706.123 379.56C704.767 380.399 703.734 380.141 703.734 378.85Z" fill="white"/>
<path d="M723.359 378.011C722.197 376.72 722.197 376.655 723.295 377.042C723.94 377.301 724.779 377.494 725.102 377.494C725.425 377.494 725.683 377.946 725.683 378.463C725.683 379.818 724.779 379.689 723.359 378.011Z" fill="white"/>
<path d="M709.48 377.946C706.704 375.816 706.317 371.039 708.899 371.039C710.642 371.039 712.256 373.75 711.997 376.268C711.804 378.592 711.029 379.108 709.48 377.946Z" fill="white"/>
<path d="M727.168 378.334C727.426 378.14 727.814 378.14 728.072 378.334C728.265 378.592 728.072 378.786 727.62 378.786C727.168 378.786 726.974 378.592 727.168 378.334Z" fill="white"/>
<path d="M736.916 375.816C737.11 375.235 737.303 374.654 737.303 374.525C737.303 374.396 737.626 374.267 737.949 374.267C738.336 374.267 738.594 374.848 738.594 375.558C738.594 376.332 738.142 376.849 737.561 376.849C736.851 376.849 736.658 376.526 736.916 375.816Z" fill="white"/>
<path d="M703.089 375.622C703.089 374.137 704.445 371.684 705.219 371.684C706.575 371.684 705.607 375.816 704.186 376.074C703.605 376.203 703.089 376.009 703.089 375.622Z" fill="white"/>
<path d="M717.614 374.912L715.677 374.46L717.42 374.008C719.228 373.492 720.519 373.879 720.519 374.977C720.519 375.622 720.454 375.622 717.614 374.912Z" fill="white"/>
<path d="M715.354 371.813C715.354 369.167 716.839 368.779 718.195 371.103C719.099 372.653 719.163 372.975 718.324 372.975C717.808 372.975 716.968 373.169 716.387 373.363C715.613 373.686 715.354 373.298 715.354 371.813Z" fill="white"/>
<path d="M726.587 372.717C723.682 371.426 721.81 368.004 721.81 363.937C721.81 361.033 722.068 360.322 723.811 358.709C724.909 357.676 726.006 356.836 726.329 356.836C727.749 356.836 732.978 361.807 734.721 364.906L736.722 368.456L734.592 370.716C732.139 373.298 729.428 374.008 726.587 372.717Z" fill="white"/>
<path d="M713.095 371.039C712.901 370.716 713.03 370.393 713.353 370.393C713.74 370.393 714.063 370.716 714.063 371.039C714.063 371.426 713.934 371.684 713.805 371.684C713.611 371.684 713.289 371.426 713.095 371.039Z" fill="white"/>
<path d="M704.638 370.006C704.832 369.425 705.025 368.844 705.025 368.715C705.025 368.586 705.606 368.457 706.316 368.457C707.93 368.457 707.995 369.489 706.381 370.393C704.638 371.297 704.186 371.232 704.638 370.006Z" fill="white"/>
<path d="M709.738 369.231C708.253 369.037 707.801 368.198 708.77 367.617C709.028 367.424 710.19 367.101 711.352 366.843C713.095 366.455 713.417 366.584 713.417 367.682C713.417 369.037 712.062 369.618 709.738 369.231Z" fill="white"/>
<path d="M714.709 367.036C714.709 366.262 714.774 365.81 714.903 365.939C714.967 366.068 715.484 366.714 715.936 367.359C716.71 368.263 716.646 368.457 715.742 368.457C715.096 368.457 714.709 367.94 714.709 367.036Z" fill="white"/>
<path d="M705.671 366.584C705.671 366.197 705.994 365.745 706.316 365.552C706.704 365.358 706.962 365.616 706.962 366.133C706.962 366.714 706.704 367.165 706.316 367.165C705.994 367.165 705.671 366.907 705.671 366.584Z" fill="white"/>
<path d="M708.06 365.616C707.543 364.325 712.126 362.905 712.901 364.131C713.482 365.164 712.901 365.616 710.448 366.133C708.963 366.455 708.318 366.326 708.06 365.616Z" fill="white"/>
<path d="M714.128 363.55C714.128 362.84 714.322 362.646 714.515 363.163C714.709 363.615 714.644 364.196 714.451 364.389C714.257 364.648 714.063 364.26 714.128 363.55Z" fill="white"/>
<path d="M708.641 362.518C709.415 361.097 711.675 358.773 712.256 358.773C712.901 358.773 712.966 361.808 712.32 362.195C711.997 362.324 710.965 362.647 709.996 362.905C708.576 363.228 708.253 363.163 708.641 362.518Z" fill="white"/>
<path d="M713.805 361.033C713.095 359.096 713.418 358.257 714.967 357.999C716.581 357.676 716.581 357.676 715.548 359.677C714.257 362.259 714.321 362.259 713.805 361.033Z" fill="white"/>
<path d="M713.417 357.159C713.417 357.03 714.709 356.126 716.322 355.223C718.259 354.061 719.615 353.673 720.583 353.931C721.745 354.319 721.422 354.577 718.582 355.933C715.419 357.353 713.417 357.869 713.417 357.159Z" fill="white"/>
<path d="M749.246 299.964C747.503 297.446 743.823 293.379 741.176 290.926C738.53 288.473 736.787 286.472 737.303 286.472C738.723 286.472 749.569 289.441 752.28 290.603C754.539 291.572 754.604 291.701 754.023 293.702C753.7 294.864 753.442 297.769 753.442 300.157C753.442 302.61 753.248 304.547 752.99 304.547C752.667 304.547 751.053 302.481 749.246 299.964Z" fill="white"/>
<path d="M617.876 495.501C615.229 494.145 614.648 493.371 611.291 486.721C606.45 477.296 606.321 475.102 610.904 480.46C612.711 482.59 616.908 486.98 620.2 490.207C625.816 495.63 626.074 496.017 624.202 495.759C622.847 495.565 622.33 495.695 622.653 496.211C623.428 497.373 620.975 497.05 617.876 495.501Z" fill="white"/>
<path fill-rule="evenodd" clip-rule="evenodd" d="M735.115 613.115C734.579 611.843 735.177 610.377 736.449 609.841L737.84 609.251C751.362 603.465 759.124 599.989 764.398 594.47C769.672 588.952 770.303 580.845 771.294 575.913C771.565 574.559 774.631 576.936 775.984 577.208C777.338 577.48 778.215 578.798 777.943 580.152C776.752 586.082 773.544 591.736 768.379 597.103C763.232 602.452 753.266 608.186 738.389 614.449C737.117 614.985 735.651 614.388 735.115 613.115Z" fill="#00160A"/>
<path fill-rule="evenodd" clip-rule="evenodd" d="M796.266 355.54C797.452 354.833 798.986 355.223 799.693 356.409C806.764 368.288 810.552 381.868 810.552 395.996C810.552 438.798 775.854 473.496 733.052 473.496C721.679 473.496 710.647 471.043 700.546 466.369C699.293 465.789 694.559 461.173 699.327 463.05C704.094 464.928 722.54 469.142 733.185 469.142C773.226 469.142 801.552 436.037 801.552 395.996C801.552 382.774 796.266 371.039 795.396 358.967C795.295 357.567 795.079 356.246 796.266 355.54Z" fill="#00160A"/>
<path fill-rule="evenodd" clip-rule="evenodd" d="M548.671 544.752C549.555 543.691 551.131 541.547 552.192 542.431C556.544 546.056 561.188 550.256 566.156 551.067C571.326 551.91 577.459 551.91 584.547 551.052C585.918 550.886 587.163 551.863 587.329 553.233C587.495 554.604 586.519 555.85 585.148 556.016C577.621 556.927 571.024 556.927 565.351 556.001C559.476 555.043 554.012 552.455 548.992 548.273C547.931 547.389 547.787 545.813 548.671 544.752Z" fill="#00160A"/>
<path d="M601.752 457.284C598.524 454.702 591.617 447.085 586.388 440.371C583.676 436.82 580.642 429.59 578.835 422.295C577.995 419.003 577.156 416.034 576.963 415.646C576.704 415.324 575.672 410.74 574.639 405.447C573.089 397.958 573.417 395.546 572.056 386.589C571.48 382.796 570.959 379.778 570.959 379.778L572.637 377.623C573.606 376.332 574.831 374.196 575.284 372.975C577.35 367.417 592.52 349.994 592.972 350.446C593.101 350.575 592.585 353.609 591.681 357.159C590.842 360.71 589.809 366.068 589.357 369.102C588.712 374.137 588.453 374.718 586.452 376.397C583.935 378.527 579.157 385.37 579.157 386.79C579.157 388.727 582.062 387.436 585.097 384.273L588.195 381.045V384.595C588.195 386.919 587.743 389.05 586.904 390.728C585.29 393.891 585.29 397.248 586.84 399.83C587.614 401.121 588.324 404.22 588.776 407.9C590.777 424.555 595.038 439.015 602.333 453.54C604.14 457.155 605.561 460.125 605.496 460.125C605.367 460.125 603.688 458.834 601.752 457.284Z" fill="white"/>
<path fill-rule="evenodd" clip-rule="evenodd" d="M852.921 499.273L857.62 501.376C858.594 501.829 869.343 507.029 882.254 513.275C903.07 523.345 929.507 536.135 929.668 536.135C929.93 536.135 931.154 533.284 931.431 529.958C932.083 522.796 934.498 513.072 937.304 506.304C938.609 503.281 939.653 499.504 939.653 499.175C939.653 499.025 938.592 498.594 936.856 497.889C934.788 497.049 931.762 495.821 928.428 494.214C911.983 486.263 879.809 470.034 875.828 467.603C871.912 465.303 871.129 465.106 871.129 466.617C871.129 468.588 867.148 477.721 864.081 482.649C862.449 485.343 859.251 490.206 856.967 493.425L852.921 499.273ZM928.559 524.308C930.43 525.4 927.188 527.002 926.405 527.265C921.794 527.659 916.365 526.786 911.917 524.177C909.591 522.516 891.278 512.273 879.131 505.478C873.578 502.372 869.313 499.986 868.453 499.471C865.712 497.828 863.101 496.054 862.644 495.528C861.274 493.754 862.579 492.966 866.43 493.294C868.744 493.492 924.516 521.949 928.559 524.308Z" fill="white"/>
<path d="M811.956 500.925C810.277 500.344 808.47 499.053 807.308 497.568L805.371 495.179L812.214 488.401C822.736 478.072 830.483 466.784 837.455 454.196C839.779 450 846.686 433.077 847.526 431.205C848.817 428.494 849.785 427.461 852.561 425.912C855.853 423.975 859.597 423.329 861.211 424.427C864.31 426.493 864.31 433.013 861.211 444.245C857.79 456.575 853.206 465.419 843.717 478.137C842.232 480.073 839.456 483.882 837.455 486.529C832.097 493.63 828.611 497.051 823.898 499.698C819.25 502.28 816.539 502.603 811.956 500.925Z" fill="white"/>
<path d="M836.293 499.44L834.937 498.084C834.937 498.084 857.437 469.497 861.469 458.964C864.546 450.925 866.357 448.646 868.8 448.646C870.166 448.646 871.282 448.958 871.798 449.733C872.702 451.088 873.573 452.767 872.411 458.512C870.474 467.808 867.504 473.941 858.596 487.174C856.53 490.209 853.883 493.565 852.721 494.727C850.01 497.245 843.91 499.827 840.36 500.408C838.1 500.731 837.455 500.602 836.293 499.44Z" fill="white"/>
<path fill-rule="evenodd" clip-rule="evenodd" d="M874.087 469.547C875.389 466.569 876.317 463.971 876.317 463.031C876.317 461.546 877.091 461.74 880.965 463.999C884.903 466.388 916.728 482.333 932.996 490.144C939.064 493.049 944.1 494.696 944.1 495.019C944.1 495.341 872.707 472.705 874.087 469.547Z" fill="#E7EAEE"/>
<path fill-rule="evenodd" clip-rule="evenodd" d="M653.214 473.231C645.016 467.872 632.621 455.284 626.618 446.311C618.032 433.4 612.351 419.585 609.575 404.738C607.574 393.957 607.638 377.366 609.64 367.747C611.705 357.935 614.352 350.447 619.065 340.957C624.552 329.983 630.362 321.913 639.077 313.198C647.623 304.652 609.64 339.994 619.065 403.229C626.618 456.219 659.077 477.094 653.214 473.231Z" fill="#E7EAEE"/>
</svg>
