<svg width="245" height="226" viewBox="0 0 245 226" fill="none" xmlns="http://www.w3.org/2000/svg">
<path d="M164.615 84.6878C147.315 84.6878 129.705 83.985 113.232 79.3966C97.0693 74.9115 82.2292 66.2099 69.0012 56.1442C60.341 49.5922 52.4662 44.363 41.2224 45.1485C30.2226 45.7437 19.7037 49.8513 11.2114 56.8676C-3.09142 69.3929 -0.941875 92.6039 4.78337 108.85C13.3816 133.383 39.5482 150.476 61.7878 161.534C87.479 174.369 115.713 181.831 144.008 186.109C168.811 189.892 200.682 192.62 222.177 176.436C241.916 161.534 247.331 127.555 242.495 104.612C241.321 97.8349 237.712 91.7194 232.346 87.4161C218.478 77.2677 197.788 84.047 182.204 84.3777C176.417 84.5018 170.526 84.6464 164.615 84.6878Z" fill="#FFECD0"/>
<path d="M127.069 226C168.973 226 202.944 223.881 202.944 221.267C202.944 218.653 168.973 216.534 127.069 216.534C85.164 216.534 51.1936 218.653 51.1936 221.267C51.1936 223.881 85.164 226 127.069 226Z" fill="#F2F2F2"/>
<path d="M20.0042 38.7825L46.8735 36.5089C50.2241 36.2155 53.5738 37.082 56.3618 38.9633C59.1499 40.8446 61.2071 43.6265 62.1891 46.8433L87.9423 133.032L82.8992 142.064C81.6038 144.391 80.9643 147.027 81.0489 149.689C81.1335 152.351 81.939 154.94 83.3795 157.18C84.82 159.421 86.8415 161.228 89.2285 162.41C91.6154 163.591 94.2783 164.103 96.9332 163.89L200.07 155.127" stroke="#BABABA" stroke-linecap="round" stroke-linejoin="round"/>
<path d="M66.0334 59.9266L185.912 49.7576C187.093 49.6564 188.282 49.8224 189.39 50.2432C190.498 50.6641 191.497 51.329 192.313 52.1886C193.129 53.0483 193.741 54.0806 194.103 55.2091C194.466 56.3375 194.57 57.5331 194.407 58.7071L186.284 117.344C186.038 119.104 185.206 120.729 183.924 121.958C182.642 123.188 180.984 123.951 179.216 124.124L87.9423 133.032L66.0334 59.9266Z" fill="white" stroke="#BABABA" stroke-linecap="round" stroke-linejoin="round"/>
<path d="M108.404 183.65C113.781 183.65 118.139 179.291 118.139 173.915C118.139 168.538 113.781 164.18 108.404 164.18C103.028 164.18 98.6694 168.538 98.6694 173.915C98.6694 179.291 103.028 183.65 108.404 183.65Z" fill="white" stroke="#BABABA" stroke-linecap="round" stroke-linejoin="round"/>
<path d="M176.198 177.904C181.574 177.904 185.933 173.545 185.933 168.169C185.933 162.792 181.574 158.434 176.198 158.434C170.821 158.434 166.463 162.792 166.463 168.169C166.463 173.545 170.821 177.904 176.198 177.904Z" fill="white" stroke="#BABABA" stroke-linecap="round" stroke-linejoin="round"/>
<path d="M41.2817 34.1816L15.9501 36.331C13.7549 36.5173 12.1263 38.4478 12.3126 40.6431C12.4989 42.8383 14.4294 44.4668 16.6247 44.2806L41.9562 42.1312C44.1514 41.9449 45.78 40.0143 45.5937 37.8191C45.4074 35.6239 43.4769 33.9953 41.2817 34.1816Z" fill="#D2D2D2" stroke="#BABABA"/>
<path d="M116.506 105.212C117.001 101.44 118.77 97.9498 121.52 95.3212C124.27 92.6925 127.836 91.0831 131.627 90.7597C135.418 90.4364 139.205 91.4187 142.361 93.5435C145.516 95.6684 147.851 98.8082 148.977 102.442" stroke="#BABABA" stroke-linecap="round" stroke-linejoin="round"/>
<path d="M149.246 82.9103C150.524 82.9103 151.561 81.8739 151.561 80.5954C151.561 79.3169 150.524 78.2805 149.246 78.2805C147.967 78.2805 146.931 79.3169 146.931 80.5954C146.931 81.8739 147.967 82.9103 149.246 82.9103Z" fill="#BABABA" stroke="#BABABA"/>
<path d="M112.559 86.0106C113.837 86.0106 114.874 84.9742 114.874 83.6957C114.874 82.4172 113.837 81.3808 112.559 81.3808C111.28 81.3808 110.244 82.4172 110.244 83.6957C110.244 84.9742 111.28 86.0106 112.559 86.0106Z" fill="#BABABA" stroke="#BABABA"/>
<path d="M47.3491 171.042V179.95" stroke="#BABABA" stroke-linecap="round" stroke-linejoin="round"/>
<path d="M42.9053 175.486H51.7928" stroke="#BABABA" stroke-linecap="round" stroke-linejoin="round"/>
<path d="M171.435 1V9.88756" stroke="#BABABA" stroke-linecap="round" stroke-linejoin="round"/>
<path d="M166.991 5.44385H175.879" stroke="#BABABA" stroke-linecap="round" stroke-linejoin="round"/>
<path d="M84.1394 32.0031V40.8907" stroke="#BABABA" stroke-linecap="round" stroke-linejoin="round"/>
<path d="M79.6746 36.4469H88.5828" stroke="#BABABA" stroke-linecap="round" stroke-linejoin="round"/>
<path d="M211.541 64.6804C212.706 64.6804 213.65 63.7365 213.65 62.5722C213.65 61.4078 212.706 60.464 211.541 60.464C210.377 60.464 209.433 61.4078 209.433 62.5722C209.433 63.7365 210.377 64.6804 211.541 64.6804Z" fill="white" stroke="#BABABA" stroke-linecap="round" stroke-linejoin="round"/>
<path d="M132.753 45.7272C133.871 45.7272 134.778 44.8203 134.778 43.7016C134.778 42.5829 133.871 41.6761 132.753 41.6761C131.634 41.6761 130.727 42.5829 130.727 43.7016C130.727 44.8203 131.634 45.7272 132.753 45.7272Z" fill="#CFCFCF" stroke="#BABABA"/>
<path d="M146.352 192.723C147.471 192.723 148.377 191.817 148.377 190.698C148.377 189.579 147.471 188.672 146.352 188.672C145.233 188.672 144.326 189.579 144.326 190.698C144.326 191.817 145.233 192.723 146.352 192.723Z" fill="#CFCFCF" stroke="#BABABA"/>
</svg>
