<svg width="173" height="48" viewBox="0 0 173 48" fill="none" xmlns="http://www.w3.org/2000/svg">
<g clip-path="url(#clip0_1_1107)">
<g clip-path="url(#clip1_1_1107)">
<g clip-path="url(#clip2_1_1107)">
<mask id="mask0_1_1107" style="mask-type:luminance" maskUnits="userSpaceOnUse" x="0" y="0" width="47" height="47">
<path d="M46.5001 23.3762C46.5001 10.5948 36.1386 0.233398 23.3572 0.233398C10.5758 0.233398 0.214355 10.5948 0.214355 23.3762C0.214355 36.1577 10.5758 46.5191 23.3572 46.5191C36.1386 46.5191 46.5001 36.1577 46.5001 23.3762Z" fill="white"/>
</mask>
<g mask="url(#mask0_1_1107)">
<path d="M46.5001 23.3762C46.5001 10.5948 36.1386 0.233398 23.3572 0.233398C10.5758 0.233398 0.214355 10.5948 0.214355 23.3762C0.214355 36.1577 10.5758 46.5191 23.3572 46.5191C36.1386 46.5191 46.5001 36.1577 46.5001 23.3762Z" fill="#FEFA17"/>
<mask id="mask1_1_1107" style="mask-type:luminance" maskUnits="userSpaceOnUse" x="1" y="3" width="46" height="44">
<path d="M46.5004 3.12598H1.66113V46.5189H46.5004V3.12598Z" fill="white"/>
</mask>
<g mask="url(#mask1_1_1107)">
<path d="M46.5004 46.5186H1.66113C3.62728 45.5481 5.51178 44.4135 7.29547 43.1263C10.6518 40.7044 15.2078 38.2747 20.4473 37.809C29.3544 37.0172 40.3877 43.5688 46.5004 46.5186Z" fill="black"/>
<path d="M24.0764 31.4199C22.178 26.8633 18.7609 24.8838 16.9537 24.7053C16.4359 24.6711 15.9168 24.7458 15.4283 24.9247C14.9399 25.1036 14.4925 25.3829 14.1138 25.7455C14.3989 25.3921 14.7085 25.06 15.0402 24.7519C14.5618 24.3094 13.9999 23.8825 13.9999 23.8825C14.501 24.1231 15.0478 24.4414 15.2452 24.5656C15.7641 24.1029 16.3176 23.6825 16.9006 23.308C16.4014 22.8955 15.8763 22.5169 15.3287 22.1747C16.0156 22.4072 16.6792 22.7062 17.3106 23.0674C18.0936 22.6089 18.9083 22.2094 19.7481 21.872C19.4209 21.5937 19.0787 21.3345 18.723 21.0957C19.2143 21.2727 19.6916 21.4881 20.1505 21.74C21.0545 21.3897 21.9805 21.1019 22.9222 20.8784C18.2598 19.5509 14.6149 21.0336 13.3392 22.3765C12.8211 22.9304 12.4933 23.6415 12.4052 24.4026C11.8489 23.1069 10.8764 22.0443 9.64882 21.3907C6.86962 20.203 4.09041 22.5318 4.09041 22.5318C5.24542 22.3035 6.44118 22.4444 7.51506 22.9354L8.54777 22.2446L7.84917 23.0907C8.94252 23.6677 9.93127 24.4317 10.7726 25.3496C10.0732 24.9115 9.24543 24.7384 8.43386 24.8606C6.63422 25.1633 3.36144 27.3834 1.77441 32.0642C2.47313 31.42 3.21671 30.8285 3.99929 30.2944C4.06347 29.7706 4.16241 29.2519 4.29544 28.7418C4.28949 29.1826 4.30978 29.6233 4.35618 30.0615C5.10583 29.5435 5.89273 29.0842 6.71015 28.6875C6.77615 27.9509 6.91351 27.2228 7.1202 26.514C7.07644 27.1705 7.07644 27.8292 7.1202 28.4857C7.74698 28.2061 8.39445 27.9776 9.05653 27.8026C9.05653 27.5619 9.12487 26.9254 9.21599 26.3665C9.21599 26.3665 9.21599 27.0807 9.3223 27.7327C9.57035 27.6758 9.82346 27.6292 10.0816 27.593C9.17043 28.509 8.25162 30.4884 8.33515 34.7423C8.33515 34.7423 8.87428 33.477 9.56529 32.1574C9.43163 31.6271 9.36026 31.0825 9.35267 30.535C9.35267 30.535 9.5501 31.1793 9.77031 31.7615C9.97533 31.3734 10.1955 30.9852 10.4082 30.6514L10.4613 30.5661C10.3854 30.1469 10.2487 29.3085 10.2107 28.7263C10.2107 28.7263 10.4309 29.5026 10.6891 30.209C11.2073 29.3921 11.8163 28.6393 12.504 27.9656C16.7411 35.4021 16.3007 46.231 16.3007 46.231L18.2902 46.0524C17.7434 35.7282 14.4631 29.5724 13.2405 27.6085C14.2272 27.4254 15.2381 27.4254 16.2247 27.6085C16.2247 26.9487 16.2247 26.2345 16.2247 26.2345C16.3538 26.7857 16.4449 27.4222 16.4753 27.6551C17.1488 27.7831 17.8115 27.9647 18.4572 28.1985C18.4713 27.5321 18.4408 26.8656 18.3661 26.2035C18.6199 26.8971 18.8056 27.6148 18.9204 28.346C19.7756 28.6725 20.6057 29.0644 21.4035 29.5181C21.4283 29.0786 21.4283 28.638 21.4035 28.1985C21.5701 28.706 21.702 29.2248 21.7983 29.751C22.5959 30.2507 23.3572 30.8084 24.0764 31.4199Z" fill="black"/>
<path d="M12.5196 23.1457C13.613 16.2293 17.6376 12.3325 20.0675 11.4553C20.7654 11.2264 21.5021 11.1476 22.2313 11.2237C22.9605 11.2998 23.6663 11.5293 24.3046 11.8978C23.7957 11.5212 23.2602 11.1839 22.7024 10.8886C23.2111 10.1124 23.8414 9.33614 23.8414 9.33614C23.2339 9.84071 22.5961 10.4694 22.3607 10.7023C21.4981 10.2545 20.6017 9.87811 19.6802 9.57678C20.2236 8.83126 20.8146 8.12332 21.4495 7.45759C20.5826 7.99937 19.7711 8.6287 19.0272 9.33614C17.7969 8.98459 16.5432 8.72515 15.276 8.55988C15.6298 8.05287 16.01 7.56571 16.415 7.10051C15.8044 7.52169 15.2234 7.98598 14.6761 8.49002C13.3439 8.32058 12.0012 8.25312 10.6592 8.28819C16.62 4.82608 22.1101 5.59457 24.297 7.00736C25.19 7.58814 25.8789 8.44461 26.2637 9.45258C26.7041 7.54298 27.5242 5.50142 29.0353 4.36032C32.4068 1.79867 36.9932 4.01877 36.9932 4.01877C35.3348 4.10701 33.7435 4.71704 32.4372 5.76535L30.7894 5.17539L32.0347 6.09914C30.7252 7.26451 29.6208 8.65081 28.7695 10.1977C29.5904 9.37515 30.6626 8.86547 31.8069 8.75395C34.3887 8.55988 39.6282 10.4539 43.3414 16.3224C42.1613 15.6654 40.9384 15.0922 39.6813 14.6069C39.4251 13.9015 39.118 13.2165 38.7625 12.5576C38.9155 13.1608 39.0346 13.7724 39.1194 14.3895C37.9165 13.9428 36.683 13.5874 35.429 13.3261C35.0973 12.3367 34.6673 11.3847 34.1457 10.485C34.4116 11.3751 34.6171 12.2828 34.7608 13.2019C33.8075 13.0332 32.8426 12.9423 31.8753 12.9302C31.769 12.6119 31.488 11.7503 31.1767 11.0206C31.1767 11.0206 31.3817 12.0142 31.488 12.9302C31.1311 12.9302 30.7287 12.9302 30.4173 12.9923C31.936 13.9393 33.8875 16.3302 35.1784 22.1987C35.1784 22.1987 34.0166 20.6462 32.6346 19.0937C32.6457 18.3098 32.5615 17.5276 32.384 16.7649C32.384 16.7649 32.3309 17.7197 32.2246 18.5969C31.8145 18.1389 31.3893 17.6886 30.9792 17.2928L30.8805 17.1996C30.8805 16.5941 30.7514 15.4064 30.6072 14.5914C30.6072 14.5914 30.6072 15.7402 30.4401 16.7959C29.4739 15.8732 28.4062 15.0683 27.2584 14.3973C23.9249 26.0412 28.1013 40.7901 28.1013 40.7901L25.3069 41.2403C22.6492 26.9028 25.1019 17.285 26.127 14.1567C24.7136 14.2381 23.3254 14.5745 22.0266 15.1503C21.7532 14.2653 21.5482 13.2717 21.5482 13.2717C21.5549 13.9539 21.5954 14.6353 21.6697 15.3133C20.7853 15.7181 19.9345 16.1958 19.1259 16.7416C18.8966 15.8382 18.7267 14.9202 18.6171 13.9937C18.5025 15.0246 18.4872 16.0646 18.5715 17.0987C17.5285 17.857 16.5413 18.6924 15.6177 19.5982C15.4508 18.9982 15.3164 18.3892 15.2152 17.774C15.1642 18.5261 15.1642 19.2809 15.2152 20.0329C14.2433 21.0016 13.3423 22.042 12.5196 23.1457Z" fill="black"/>
</g>
</g>
<path d="M60.4632 34.1617V18.5531H54.4717V15.6474H69.5532V18.5531H63.5617V34.1617H60.4632ZM70.3282 34.1617V20.276H73.0668V23.6574L72.7325 23.2202C72.9039 22.7574 73.1311 22.3374 73.4139 21.9602C73.7054 21.5745 74.0525 21.2574 74.4554 21.0088C74.7982 20.7774 75.1754 20.5974 75.5868 20.4688C76.0068 20.3317 76.4354 20.2502 76.8725 20.2245C77.3096 20.1902 77.7339 20.2074 78.1454 20.276V23.1688C77.7339 23.0488 77.2582 23.0102 76.7182 23.0531C76.1868 23.096 75.7068 23.246 75.2782 23.5031C74.8496 23.7345 74.4982 24.0302 74.2239 24.3902C73.9582 24.7502 73.7611 25.1617 73.6325 25.6245C73.5039 26.0788 73.4396 26.5717 73.4396 27.1031V34.1617H70.3282ZM84.1553 34.5474C83.1524 34.5474 82.3038 34.3588 81.6096 33.9817C80.9153 33.596 80.3881 33.086 80.0281 32.4517C79.6767 31.8174 79.501 31.1188 79.501 30.356C79.501 29.6874 79.6124 29.0874 79.8353 28.556C80.0581 28.016 80.401 27.5531 80.8638 27.1674C81.3267 26.7731 81.9267 26.4517 82.6638 26.2031C83.221 26.0231 83.8724 25.8602 84.6181 25.7145C85.3724 25.5688 86.1867 25.436 87.061 25.316C87.9438 25.1874 88.8653 25.0502 89.8253 24.9045L88.7196 25.5345C88.7281 24.5745 88.5138 23.8674 88.0767 23.4131C87.6396 22.9588 86.9024 22.7317 85.8653 22.7317C85.2396 22.7317 84.6353 22.8774 84.0524 23.1688C83.4696 23.4602 83.0624 23.9617 82.831 24.6731L80.0024 23.786C80.3453 22.6117 80.9967 21.6688 81.9567 20.9574C82.9253 20.246 84.2281 19.8902 85.8653 19.8902C87.0996 19.8902 88.1838 20.0917 89.1181 20.4945C90.061 20.8974 90.7596 21.5574 91.2138 22.4745C91.4624 22.9631 91.6124 23.4645 91.6638 23.9788C91.7153 24.4845 91.741 25.0374 91.741 25.6374V34.1617H89.0281V31.1531L89.4781 31.6417C88.8524 32.6445 88.1196 33.3817 87.2796 33.8531C86.4481 34.316 85.4067 34.5474 84.1553 34.5474ZM84.7724 32.0788C85.4753 32.0788 86.0753 31.9545 86.5724 31.706C87.0696 31.4574 87.4638 31.1531 87.7553 30.7931C88.0553 30.4331 88.2567 30.0945 88.3596 29.7774C88.5224 29.3831 88.6124 28.9331 88.6296 28.4274C88.6553 27.9131 88.6681 27.4974 88.6681 27.1802L89.6196 27.4631C88.6853 27.6088 87.8838 27.7374 87.2153 27.8488C86.5467 27.9602 85.9724 28.0674 85.4924 28.1702C85.0124 28.2645 84.5881 28.3717 84.2196 28.4917C83.8596 28.6202 83.5553 28.7702 83.3067 28.9417C83.0581 29.1131 82.8653 29.3102 82.7281 29.5331C82.5996 29.756 82.5353 30.0174 82.5353 30.3174C82.5353 30.6602 82.621 30.9645 82.7924 31.2302C82.9638 31.4874 83.2124 31.6931 83.5381 31.8474C83.8724 32.0017 84.2838 32.0788 84.7724 32.0788ZM98.3403 34.1617L93.3003 20.276H96.3989L99.896 30.3431L103.38 20.276H106.492L101.452 34.1617H98.3403ZM109.056 18.1674V15.326H112.155V18.1674H109.056ZM109.056 34.1617V20.276H112.155V34.1617H109.056ZM116.263 34.1617V15.2617H119.362V34.1617H116.263ZM127.096 34.5474C126.093 34.5474 125.245 34.3588 124.55 33.9817C123.856 33.596 123.329 33.086 122.969 32.4517C122.618 31.8174 122.442 31.1188 122.442 30.356C122.442 29.6874 122.553 29.0874 122.776 28.556C122.999 28.016 123.342 27.5531 123.805 27.1674C124.268 26.7731 124.868 26.4517 125.605 26.2031C126.162 26.0231 126.813 25.8602 127.559 25.7145C128.313 25.5688 129.128 25.436 130.002 25.316C130.885 25.1874 131.806 25.0502 132.766 24.9045L131.66 25.5345C131.669 24.5745 131.455 23.8674 131.018 23.4131C130.58 22.9588 129.843 22.7317 128.806 22.7317C128.18 22.7317 127.576 22.8774 126.993 23.1688C126.41 23.4602 126.003 23.9617 125.772 24.6731L122.943 23.786C123.286 22.6117 123.938 21.6688 124.898 20.9574C125.866 20.246 127.169 19.8902 128.806 19.8902C130.04 19.8902 131.125 20.0917 132.059 20.4945C133.002 20.8974 133.7 21.5574 134.155 22.4745C134.403 22.9631 134.553 23.4645 134.605 23.9788C134.656 24.4845 134.682 25.0374 134.682 25.6374V34.1617H131.969V31.1531L132.419 31.6417C131.793 32.6445 131.06 33.3817 130.22 33.8531C129.389 34.316 128.348 34.5474 127.096 34.5474ZM127.713 32.0788C128.416 32.0788 129.016 31.9545 129.513 31.706C130.01 31.4574 130.405 31.1531 130.696 30.7931C130.996 30.4331 131.198 30.0945 131.3 29.7774C131.463 29.3831 131.553 28.9331 131.57 28.4274C131.596 27.9131 131.609 27.4974 131.609 27.1802L132.56 27.4631C131.626 27.6088 130.825 27.7374 130.156 27.8488C129.488 27.9602 128.913 28.0674 128.433 28.1702C127.953 28.2645 127.529 28.3717 127.16 28.4917C126.8 28.6202 126.496 28.7702 126.248 28.9417C125.999 29.1131 125.806 29.3102 125.669 29.5331C125.54 29.756 125.476 30.0174 125.476 30.3174C125.476 30.6602 125.562 30.9645 125.733 31.2302C125.905 31.4874 126.153 31.6931 126.479 31.8474C126.813 32.0017 127.225 32.0788 127.713 32.0788Z" fill="white"/>
</g>
</g>
</g>
<defs>
<clipPath id="clip0_1_1107">
<rect width="173" height="47" fill="white" transform="translate(0 0.0195312)"/>
</clipPath>
<clipPath id="clip1_1_1107">
<rect width="173" height="47" fill="white" transform="translate(0 0.0195312)"/>
</clipPath>
<clipPath id="clip2_1_1107">
<rect width="173" height="47" fill="white" transform="translate(0 0.0195312)"/>
</clipPath>
</defs>
</svg>
